<svg width="120" height="119" fill="none" xmlns="http://www.w3.org/2000/svg"><path d="m72.893 48.845.002-2.407-5.508-.014-8.658-.033-8.956-.034-8.094.1-5.473-.033h-.53c-.045 2.469.162 4.923.737 7.341.435 1.828.765 3.728 1.337 5.507.329 1.023.659 2.046 1.014 3.06.619 1.77 2.563 5.094 3.226 5.845.664.752 1.773 2.163 2.216 2.694l1.205 1.445c.217.26.449.506.697.737l2.487 2.313c4.328 4.028 8.543 6.81 14.274 8.464 3.306.953 6.477 1.166 9.962 1.15l.029-.808v-5.008l.033-4.014s-.133-3.284-.133-3.848c0-.564.067-5.473.067-5.473s.1-3.848.132-4.843c.034-.995-.166-5.54-.166-6.568 0-1.028.1-5.042.1-5.573Z" fill="#275243"/><path d="m100.159 69.08-1.692-1.526-3.416-2.886-4.246-3.682-3.715-3.052-3.76-3.383-4.367-3.749-3.024-2.403-1.301-.941-1.744-1.02-.002 2.407c0 .531-.1 4.545-.1 5.573 0 1.028.2 5.573.167 6.568-.033.995-.133 4.843-.133 4.843s-.066 4.91-.066 5.473c0 .564.132 3.848.132 3.848l-.033 4.014v5.008l-.029.808c2.768.295 10.805-1.565 11.788-1.925 3.302-1.212 6.473-3.089 9.283-5.196 0 0 2.518-2.205 2.92-2.566 1.302-1.17 3.07-3.127 4.115-4.416.186-.23.363-.452.538-.674l-1.315-1.123Z" fill="#008009"/><path d="m106.13 46.656-4.843.066-5.142-.033h-5.639l-2.919-.066s-4.61-.133-5.705-.067c-1.095.067-5.44-.033-5.44-.033l-3.145-.078-.403-.007 1.744 1.02 1.301.941 3.024 2.403 4.367 3.749 3.76 3.383 3.715 3.052 4.246 3.682 3.416 2.886 1.692 1.526 1.315 1.123c.748-.936 1.138-1.482 1.887-2.459 3.464-4.515 5.543-10.106 6.477-15.68.23-1.373.521-2.81.648-4.224.031-.352.052-.703.059-1.051l-4.415-.133Z" fill="#DEDED9"/><path d="M110.548 46.375c-.014-1.283-.011-2.575-.106-3.854-1.089-14.704-14.052-28.47-28.226-31.67 0 0-2.581-.476-3.242-.573-.25-.036-1.31-.234-1.9-.344-.27-.05-.541-.085-.815-.102-.707-.044-2.1-.129-2.46-.129-.108 0-.349.007-.655.018l-.052 1.044-.133 2.919.133 3.516c.234 6.226-.377 12.423 0 18.642.146 2.424-.14 4.87-.18 7.294-.014.836.062 1.69.018 2.525l-.034.737-.002.04.403.007.109.003h.052l.044.002 2.94.073s4.345.1 5.44.033c1.094-.066 5.705.067 5.705.067l2.919.066h5.639l5.141.033 4.843-.066 4.416.133c.004-.14.005-.276.003-.414Z" fill="#F7BC00"/><path d="m11.394 107.823-2.986-3.184-1.526-1.725-1.061-1.46-.76-1.076C3.48 101.717 1.743 103 .532 104.626c-1.375 1.881.211 3.671 1.426 5.062 0 0 1.32 1.585 1.496 1.784.178.199 1.836 2.101 1.924 2.189 1.478 1.481 2.846 3.442 4.58 4.609.712.479 1.607.753 2.44.54.645-.165 1.183-.6 1.698-1.023a60.27 60.27 0 0 0 3.418-3.048c-1.27-1.275-2.445-2.532-3.552-3.961-.798-1.029-1.679-2.006-2.568-2.955Z" fill="#6C6C6C"/><path d="M44.474 84.127a2.692 2.692 0 0 1-.122-.108l-2.729-2.6-4.138-4.182c-.042-.042-1.479-1.7-1.479-1.7l-1.408-1.686a13.65 13.65 0 0 1-.452-.616c-.606.542-1.41 1.258-1.412 1.262-2.602 2.502-5.472 5.11-8.117 7.566-1.045.97-2.026 2.047-3.14 2.938-5.434 4.349-10.39 9.69-15.235 14.323-.376.36-.775.71-1.184 1.056l.763 1.075 1.061 1.459 1.526 1.725 2.985 3.184c.89.949 1.772 1.927 2.568 2.955 1.108 1.429 2.282 2.685 3.552 3.961 1.172-1.12 2.311-2.274 3.456-3.443l3.03-3.185 4.18-4.201 5.174-5.307 5.234-5.08 2.926-2.904 2.433-2.543 2.398-2.378c-.653-.484-1.253-1.049-1.87-1.57Z" fill="#333"/><path d="M106.307 13.685c-4.036-4.036-8.191-7.531-13.547-9.669C87.957 2.1 82.73 1.12 77.713.328 76.533.142 75.291.146 74.1.06c-3.253-.235-6.585.266-9.8.743a3.08 3.08 0 0 0-.157.028c-.559.116-3.925.838-6.996 1.929-3.361 1.194-5.995 2.692-6.369 2.875-.249.122-2.087 1.177-3.035 1.749a7.46 7.46 0 0 0-.727.499l-2.518 1.954c-3.062 2.28-6.236 4.784-8.392 7.96 0 0-.63.93-2.29 3.185-1.658 2.256-3.648 6.27-3.648 6.27-.66 1.47-1.532 4.427-2.019 5.962-.643 2.028-.959 3.999-1.258 6.1-.134.937-.234 1.85-.296 2.769a31.606 31.606 0 0 0-.07 2.14c0 1.721.01 3.442.016 5.162 0 .108.006.216.02.324.082.637.154 3.225.82 6.656.756 3.89 1.394 5.595 2.19 8.205.796 2.61 1.924 4.224 2.277 5.108.253.632 1.135 1.773 1.504 2.388.215.357 1.065 1.57 1.246 1.787l1.408 1.686s1.436 1.657 1.479 1.7l4.138 4.182 2.729 2.6c.039.037.08.073.121.108.733.62 1.44 1.301 2.24 1.833 9.62 6.39 21.772 8.897 33.17 7.005 11.709-1.945 24.25-9.012 30.733-19.193 3.269-5.135 5.866-10.125 7.344-16.036.399-1.593 1.372-6.413 1.46-6.855 2.621-13.103-3.977-28.056-13.113-37.198Zm4.238 33.105c-.039 1.748-.42 3.562-.707 5.275-.935 5.574-3.014 11.164-6.477 15.68-.749.977-1.14 1.523-1.888 2.46-.174.221-.352.445-.538.674-1.045 1.288-2.813 3.245-4.116 4.415-.401.361-2.919 2.566-2.919 2.566-2.81 2.108-5.981 3.984-9.283 5.196-.983.36-9.067 2.208-11.787 1.924-3.414-.006-6.656-.195-9.962-1.149-5.73-1.654-9.929-4.42-14.257-8.448l-2.503-2.33a8.127 8.127 0 0 1-.697-.736c-.357-.428-.918-1.1-1.205-1.446-.443-.53-1.553-1.941-2.216-2.693-.663-.752-2.607-4.077-3.226-5.845a124.378 124.378 0 0 1-1.015-3.06c-.57-1.779-.901-3.679-1.336-5.507-.576-2.419-.782-4.872-.738-7.342.01-.513.029-1.027.058-1.541.063-1.078-.007-1.758.16-2.88.175-1.18.218-1.456.378-2.35.165-.916.397-2.312.701-3.193.584-1.692 1.118-3.424 1.856-5.058.167-.371.35-.734.545-1.09.624-1.146 1.426-2.314 2.115-3.422.444-.713 1.047-1.42 1.6-2.065.581-.68 1.274-1.242 1.845-1.928.663-.796 2.486-2.682 2.928-3.08.442-.399 1.7-1.377 2.584-1.996.885-.62 2.051-1.383 2.823-1.805.368-.201 1.865-1.062 2.795-1.553 1.092-.578 2.072-1.194 3.417-1.669.994-.35 1.882-.93 2.866-1.303 1.46-.553 3.1-.94 4.64-1.19 1.11-.18 2.562-.377 3.056-.442.112-.014.224-.024.337-.029.445-.019 1.708-.072 2.584-.103l.04-.001.05-.002.063-.002h.026c.306-.011.546-.018.655-.018.36 0 1.754.084 2.46.129.273.017.544.05.814.101.59.11 1.651.309 1.9.345.662.097 3.243.573 3.243.573 14.173 3.2 27.137 16.965 28.226 31.67.095 1.28.092 2.57.106 3.853.003.138.002.276-.001.415Z" fill="#6C6C6C"/><path d="M72.93 45.66c.012-.208.015-.418.015-.628a25.757 25.757 0 0 0-.021-.95 28.479 28.479 0 0 1-.012-.946c.01-.606.036-1.214.066-1.821l.023-.457c.056-1.065.118-2.13.13-3.195a29.78 29.78 0 0 0-.003-.911 23.214 23.214 0 0 0-.036-.91 62.547 62.547 0 0 1-.06-1.166 82.015 82.015 0 0 1-.066-3.495c.001-3.688.19-7.373.181-11.065a83.706 83.706 0 0 0-.055-2.916l-.133-3.516.133-2.92.052-1.043c-.872.029-2.286.088-2.763.108a3.813 3.813 0 0 0-.337.03c-.494.065-1.947.262-3.055.441-1.541.251-3.18.637-4.641 1.19-.984.373-1.871.953-2.865 1.303-1.346.474-2.326 1.091-3.418 1.669-.93.492-2.427 1.352-2.795 1.554-.772.422-1.938 1.185-2.823 1.804-.884.62-2.141 1.598-2.584 1.996-.442.398-2.264 2.285-2.928 3.08-.572.687-1.264 1.25-1.845 1.929-.553.645-1.156 1.352-1.6 2.065-.69 1.108-1.49 2.275-2.115 3.421-.194.356-.377.72-.545 1.09-.738 1.634-1.272 3.366-1.856 5.059-.304.88-.536 2.277-.7 3.192-.161.894-.204 1.17-.38 2.35-.166 1.122-.096 1.802-.158 2.88a38.65 38.65 0 0 0-.06 1.542h.532l5.473.033 8.094-.1 8.956.034 8.658.033 5.506.014.008-.169.028-.608Z" fill="#FD6B6B"/></svg>