<svg xmlns="http://www.w3.org/2000/svg" width="120" height="120" fill="none"><path fill="#FD4256" d="M82.173 88.171c-1.88-.066-3.761-.576-5.62-.849-.757-.11-1.514-.216-2.271-.317-3.493-.46-5.303 2.082-6.433 5.076-.702 1.858-1.323 3.957-1.669 5.907l-.107.601 6.02-.01 4.496-.005 4.539-.008c.13-.844.36-1.713.602-2.535.203-.69.44-1.369.703-2.038.885-2.245 2.045-4.174 3.432-6.137.042-.061.572-.674.947-1.06l.13-.134c-.046.038-.128.099-.175.135-1.313 1-2.948 1.432-4.594 1.374ZM107.512 34.66a10.239 10.239 0 0 0-1.408-1.292c-1.032-.793-2.597-1.762-3.772-2.317-1.912-.903-3.969-1.463-6.051-1.797a34.959 34.959 0 0 0-5.647-.506c-2.48-.012-5.162.073-7.61.46-1.905.302-4.326.901-5.332 1.331 0 0 .234.17.348.247 2.226 1.496 4.314 3.22 6.125 5.204a16.4 16.4 0 0 1 2.331 3.257c.877 1.608 1.667 3.287 1.949 5.114.147.956.147 1.933.048 2.893-.211 2.07-1.098 4.018-1.294 6.071-.172 1.8.48 3.638 1.558 5.066 1.035 1.369 2.552 2.297 3.938 3.27.43.301.893.562 1.276.884-.265-.404-.383-1.067-.496-1.531-.195-.799.05-1.632.282-2.405.167-.558.354-1.098.637-1.616.409-.747 1.023-1.303 1.556-1.938.5-.594 1.079-1.117 1.536-1.747a14.3 14.3 0 0 0 1.244-1.997c.688-1.37 1.071-2.851 1.378-4.35.304-1.484.361-3.004.747-4.48.384-1.466.963-2.921 1.945-4.086.983-1.167 2.759-2.009 4.314-2.106.333-.02.491-.04.744-.068.33-.036.422-.073.782-.112h.001v-.001a85.639 85.639 0 0 0-1.129-1.448ZM97.128 71.09c-.068-2.13-.453-3.96-1.365-5.882-.145-.305-.279-.484-.743-1.118.169.487.217.965.16 1.42-.131 1.058-.822 2.003-1.833 2.715-1.176.828-2.3 1.398-2.097 3.023.133 1.053.214 2.113.244 3.174.069 2.443-.049 5.188-1.05 7.458-.367.83-.872 1.591-1.392 2.332-.536.765-1.096 1.522-1.777 2.157 2.392-1.908 6.38-5.655 7.588-7.517.149-.166 1.013-1.743 1.251-2.375.456-1.21.896-2.573.985-3.87a15.04 15.04 0 0 0 .029-1.517Z"/><path fill="#CA8461" d="m116.546 59.25-2.5-2.331c-1.86-1.734-2.658-3.578-2.61-6.134.015-.766.076-1.53.138-2.292.119-1.465.267-2.935.174-4.407-.188-3.006-1.431-5.537-3.107-7.977-.178 0-.368.03-.544.045-.183.015-.35.045-.533.063-.367.036-.734.081-1.096.15a6.842 6.842 0 0 0-2.333.903 6.037 6.037 0 0 0-.968.734 4.626 4.626 0 0 0-.38.4c-.983 1.165-1.55 2.613-1.934 4.078-.386 1.476-.445 2.99-.748 4.473-.308 1.499-.7 2.977-1.388 4.346-.357.71-.785 1.365-1.251 2.007-.457.63-1.022 1.147-1.521 1.74-.533.636-1.15 1.2-1.56 1.947-.282.517-.473 1.045-.64 1.603-.231.773-.482 1.625-.287 2.424.113.464.243 1.115.508 1.52l.006.004c-.008.002.389.327.453.512.274.372.6 1.066.586 1.023.472.645.606.824.752 1.131.912 1.921 1.294 3.747 1.363 5.876.016.502.006 1.006-.03 1.507-.089 1.297-.528 2.662-.984 3.873a7.993 7.993 0 0 1-.337.741c-.146.294-.299.585-.457.873-.165.3-.333.6-.534.88a9.312 9.312 0 0 1-.639.795 23.66 23.66 0 0 1-.855.926 49.047 49.047 0 0 1-1.02 1.031 91.956 91.956 0 0 1-1.671 1.607 150.634 150.634 0 0 1-2.092 1.93l-.434.394-.38.342-.316.284-.242.216-.159.142c-.02.018-.052.037-.066.06-.002.003 0 0 .002 0a15.54 15.54 0 0 0-.595.63c-.189.209-.377.418-.543.647-.164.228-.32.463-.477.696a35.504 35.504 0 0 0-.894 1.394 28.96 28.96 0 0 0-.812 1.428 26.388 26.388 0 0 0-.727 1.487c-.114.256-.225.514-.33.774a24.234 24.234 0 0 0-.803 2.286c-.242.822-.473 1.691-.604 2.535.24-.008.727.01.875.01 1.698-.002 3.397-.001 5.095-.001.867 0 2.43-.003 2.443-.003.3-.002.387-.085.471-.378.052-.18.075-.245.11-.377.305-1.157.717-2.284 1.078-3.425.323-1.017.522-2.072.842-3.091.534-1.7 1.107-3.387 1.72-5.06.314-.856.645-1.721 1.19-2.453.753-1.009 1.934-1.625 3.206-1.444 1.522.217 3.056.351 4.592.403.663.022 1.328.028 1.99-.016 1.664-.113 3.454-.483 4.781-1.524 1.207-.946 2.154-2.21 2.798-3.596 1.297-2.794 1.301-5.94 1.192-8.96-.03-.836-.403-2.19.18-2.894.263-.319.677-.459 1.058-.617a7.894 7.894 0 0 0 2.457-1.607c1.47-1.415.607-3.102-.659-4.282Z"/><path fill="#333" d="M77.692 30.54c-.206-.165-1.05-.633-1.655-.935-1.455-.636-4.158-1.823-7.031-2.315-2.055-.38-4.145-.543-6.234-.566-3.03-.034-6.08.278-9.012 1.054-1.505.4-3.013.957-4.448 1.473-.636.245-1.226.566-1.775.876l-.012.006.003.001.031.02c.065.046.19.124.215.142.582.42 1.07.794 1.625 1.16.672.443 1.32.922 1.938 1.435a19.398 19.398 0 0 1 3.303 3.493 16.772 16.772 0 0 1 2.327 4.468c.72 2.126.979 4.384 1.076 6.618.097 2.21-.13 4.462.079 6.691.036.282.188 1.17.96 2.397.03-.028.233-.225.29-.283.626-.647 1.395-1.262 1.862-2.043.43-.72.754-1.646.972-2.45.455-1.678.757-3.471 1.172-5.152.594-2.406 1.285-4.511 2.617-6.596.414-.773 2.259-3.031 3.141-3.936.738-.756 2.446-2.261 3.294-2.811 1.416-.918 5.262-2.748 5.262-2.748Z"/><path fill="#D6A300" d="M17.966 98.45c.036-.12.064-.226.104-.345.04-.12.088-.24.135-.36 1.034-2.63 1.666-5.428 2.63-8.09.467-1.292.977-2.606 1.487-3.883a192.41 192.41 0 0 1 3.282-7.674c.213-.471.398-.953.593-1.43 1.027-2.513 1.81-5.227.936-7.913-.52-1.598-1.714-2.82-2.463-4.297-.827-1.63-1.346-3.652-1.297-5.488.046-1.732 1.102-3.913 2.86-4.63a4.313 4.313 0 0 1 1.66-.305 6.031 6.031 0 0 1 1.843.317c1.134.374 2.218 1.32 3.219 1.972.614.4 1.255.818 1.981.911.108.014.21.02.306.018 1.884-.021 1.839-2.717 1.873-4.133.09-3.703.188-7.563 1.283-11.14.094-.31.19-.617.292-.923.527-1.584 1.159-3.112 2.04-4.54a17.191 17.191 0 0 1 3.236-3.822c.179-.16.357-.316.542-.47l.217-.178c.415-.341.841-.678 1.288-.969.308-.2.616-.417.926-.61.144-.09.199-.128.332-.2l.254-.136c-.008-.005-.015-.01-.024-.014a6.436 6.436 0 0 0-.423-.25c-.537-.283-1.068-.577-1.611-.845-11.172-5.515-26.325-3.49-34.498 6.307-6.09 7.3-6.74 16.926-3.31 25.565a31.992 31.992 0 0 0 1.718 3.642c1.92 3.479 4.341 6.447 7.436 8.97 1.924 1.57 3.921 3.028 6.244 3.957.227.085.235.285-.023.347-.707.158-2.421.437-3.116.671-2.814.861-5.553 2.211-7.88 4.109-1.75 1.426-3.214 3.161-4.513 5-1.332 1.886-2.565 3.846-3.548 5.939-.418.889-.795 1.798-1.128 2.722-.145.4-.892 1.881-.52 2.253.075.078.263.07.397.07 4.949.004 9.898-.007 14.846-.008h.354l.04-.118Z"/><path fill="#632F3C" d="M94.645 63.309a3.142 3.142 0 0 0-.676-.767c-.383-.322-.82-.578-1.25-.879-1.386-.972-2.925-1.903-3.96-3.272-1.079-1.428-1.73-3.266-1.559-5.066.196-2.053 1.083-4 1.295-6.07a11.39 11.39 0 0 0-.049-2.894c-.283-1.827-1.072-3.506-1.949-5.114a16.407 16.407 0 0 0-2.33-3.257c-1.812-1.983-3.9-3.708-6.126-5.204a18.11 18.11 0 0 1-.35-.247s-3.845 1.83-5.26 2.748a21.294 21.294 0 0 0-7.075 7.667c-1.883 3.46-2.277 7.23-3.294 10.972-.218.804-.465 1.62-.895 2.34-.467.78-1.188 1.368-1.814 2.016-.056.057-.234.24-.263.267l.01.017.074.092.045.053c.579.696 1.308 1.325 1.84 1.81l.097.087.001.001c.428.384.837.688 1.292 1.036l1.43 1.108c.514.396 1.054.771 1.405 1.273.17.244.295.517.352.837l.002.012c.013.08.022.162.027.247.037.696-.247 1.395-.728 1.898-.364.38-.825.649-1.279.913l-1.26.731c-.343.2-.695.407-.937.722-.346.45-.43 1.04-.459 1.624v.003c-.012.238-.015.475-.023.703v.003c-.003.085-.007.169-.012.25a29.42 29.42 0 0 1-.465 3.646c-.235 1.2-.582 2.336-.957 3.48-.06.185-.103.388-.167.573a.147.147 0 0 0-.004-.023c-.013.038-.028.057-.041.095l-.027.081c-.186.543-.393 1.016-.591 1.56l-.021.1c-.37.957-.778 1.707-1.646 2.52a8.605 8.605 0 0 1-2.795 1.758c-.147.042-.469.149-.618.185-.634.174-1.333.285-2.036.354-.77.076-1.554.096-2.341.093a65.34 65.34 0 0 1-3.202-.077c-1.949-.09-2.245 1.703-2.752 3.28-1.042 3.249-1.739 6.614-2.781 9.852-.093.274-.183.568-.284.846-.05.138-.063.157-.1.274h.05c.277.004 1.323.013 1.677.013h18.303l.73.002c.737.001 1.475.006 2.212.008l1.106.004 1.856-.004.108-.6c.345-1.95.967-4.05 1.668-5.908 1.13-2.994 2.94-5.536 6.433-5.076.758.1 1.515.206 2.27.317 1.86.273 3.741.783 5.622.85 1.76.062 3.513-.436 4.866-1.591.79-.675 1.416-1.518 2.013-2.369.52-.74 1.024-1.501 1.391-2.332 1.002-2.27 1.12-5.015 1.05-7.458-.03-1.061-.11-2.12-.243-3.174-.204-1.625.921-2.194 2.097-3.022 1.011-.712 1.702-1.658 1.833-2.716.086-.696-.07-1.441-.536-2.201Z"/><path fill="#FFAF87" d="M64.936 65.02c-.363.38-.824.649-1.278.913l-1.26.731c-.344.2-.696.407-.938.722-.346.45-.43 1.04-.459 1.624v.003c-.012.238-.015.475-.022.703v.003l-.013.25a29.42 29.42 0 0 1-.465 3.646 29.152 29.152 0 0 1-.938 3.498c-.06.185-.122.37-.185.555v.003l-.04.112c-.185.543-.38 1.086-.578 1.631a6.947 6.947 0 0 1-1.49 2.423c-.848.886-1.985 1.594-3.143 1.994-.667.23-1.386.342-2.084.431-.714.091-1.434.138-2.155.155-1.267.03-2.533-.031-3.799-.088-1.949-.09-2.271 1.7-2.777 3.278-1.043 3.248-1.727 6.61-2.769 9.847-.092.274-.165.549-.266.827-.05.138-.051.168-.088.286h-.12a6.318 6.318 0 0 0-.122-.003h-.157c-7.248-.034-14.568.039-21.815.003h-.049l.037-.113c.035-.12.064-.228.104-.346.04-.121.088-.24.135-.36 1.034-2.63 1.668-5.43 2.632-8.092.468-1.293.96-2.577 1.47-3.854a194 194 0 0 1 3.3-7.704c.212-.47.397-.952.592-1.43 1.028-2.512 1.81-5.225.936-7.911-.52-1.598-1.714-2.82-2.463-4.297-.826-1.63-1.345-3.653-1.297-5.49.047-1.732 1.1-3.915 2.858-4.632a4.327 4.327 0 0 1 1.663-.304c.624.003 1.253.12 1.845.315 1.134.374 2.219 1.314 3.22 1.965.613.4 1.251.817 1.978.91.107.014.209.02.306.018 1.884-.021 1.838-2.705 1.872-4.122.09-3.702.187-7.56 1.281-11.138.095-.31.193-.618.295-.924.526-1.584 1.158-3.112 2.04-4.54a17.188 17.188 0 0 1 2.63-3.262 17.593 17.593 0 0 1 1.147-1.03l.039-.032.002-.002.176-.145c.416-.34.842-.678 1.289-.968.308-.201.61-.418.92-.612.144-.09.196-.126.329-.198.066-.036.222-.114.263-.136l.032.02c.065.044.192.124.216.141.582.42 1.07.796 1.626 1.162.671.443 1.32.921 1.938 1.435a19.395 19.395 0 0 1 3.303 3.492 16.774 16.774 0 0 1 2.329 4.467c.72 2.126.977 4.385 1.074 6.618.054 1.24.014 2.48.005 3.72-.005.625-.003 1.25.024 1.876.024.583.06 1.097.216 1.661.148.534.363 1.107.652 1.58.292.476.682.875 1.082 1.262.337.326.688.637 1.035.953l.097.088.002.001c.427.384.837.688 1.292 1.036l1.43 1.108c.513.396 1.053.771 1.405 1.273.17.244.295.517.352.837l.001.012c.014.08.023.162.028.247.038.696-.247 1.395-.728 1.898Z"/></svg>