<svg width="460" height="460" fill="none" xmlns="http://www.w3.org/2000/svg"><path d="M147.243 359.585s-5.871-13.556-7.631-23.7c-1.885-10.863-2.783-20.02-2.514-25.586.144-2.891.108-5.907.054-8.152-9.803.126-20.971-.125-20.971-.125-12.551-.054-25.03.089-37.508.287l-.126 5.35s-.054 5.71-.413 10.145c-2.119 26.178-10.88 50.867-28.495 70.725-5.332 6.015 7.2 5.135 9.858 5.081 7.882-.162 15.764-.287 23.665-.377 14.292-.144 28.584-.144 42.876-.018 6.572.054 13.359.198 20.02.251 3.465.036 6.913.036 10.378 0 2.891-.035 6.607.521 9.247-.897 3.716-1.993-1.49-6.751-3.178-8.655-6.392-7.236-11.42-15.477-15.262-24.329Z" fill="#6C6C6C"/><path d="M182.777 209.033c0-2.191.449-4.381 1.257-6.339 2.316-5.548 7.666-8.133 13.484-8.295 12.012-.359 18.996 15.316 10.396 23.988-3.789 3.825-9.696 5.153-14.921 3.896-2.352-.556-4.596-1.634-6.338-3.285-2.675-2.55-3.896-6.249-3.878-9.965ZM89.554 100.171c-.054-.27-.126-.556-.162-.826-.593-3.537-.162-7.272 1.526-10.45 2.604-4.883 7.864-7.487 13.287-7.182 3.735.198 7.774 1.042 10.827 3.322 3.321 2.496 4.237 6.985 4.614 10.917.7 7.487-3.663 13.502-10.773 15.19-3.07.736-6.32 1.167-9.39.359-5.117-1.365-8.78-6.159-9.93-11.33ZM2.149 221.332c-.54-3.627.359-7.47 3.16-9.445.987-.682 2.154-1.041 3.321-1.292 2.496-.539 5.135-.683 7.56.143 4.434 1.491 7.433 6.41 6.715 11.043-1.132 7.289-10.45 10.898-16.537 6.984-2.262-1.454-3.77-4.363-4.22-7.433ZM46.193 315.667a7.5 7.5 0 0 1 .18-1.651c.395-1.832 1.508-3.574 3.16-4.435 1.113-.575 2.388-.772 3.645-.629 2.514.27 4.866 1.903 5.943 4.202 1.077 2.298.826 5.189-.7 7.218-4.56 6.122-12.246 1.651-12.228-4.705Z" fill="#275243"/><path d="M212.24 146.872c16.86-32.067.826-73.346-38.836-72.825-13.125.161-26.089 5.781-35.174 15.243-8.583 8.924-14.472 21.511-26.089 25.766-8.044 2.945-16.913 1.113-25.406.072-17.093-2.101-36.503.125-47.85 13.089-6.518 7.451-9.427 17.506-9.911 27.399-1.114 21.905 11.114 44.529.305 65.339-4.866 9.372-13.466 16.249-17.794 25.963-3.77 8.492-5.494 17.919-4.704 27.201.09 1.132.234 2.263.413 3.394.61 3.806 1.724 7.541 3.699 10.845 6.59 10.988 20.917 14.615 33.737 14.489 23.898-.251 47.635-.915 71.587-.79 0 0 16.95.395 27.435-.035 18.674-.755 38.693.197 49.808-17.973 6.876-11.24 7.307-25.927 1.921-37.957-4.938-11.043-15.172-19.356-18.512-31.152-3.465-12.246 3.035-23.485 10.234-32.966 8.673-11.509 18.44-22.336 25.137-35.102Z" fill="#333"/><path d="m137.907 224.851-7.936.072h.108a34.552 34.552 0 0 1-.485 4.183 4.956 4.956 0 0 1-1.652 2.891c-.862.736-1.939 1.167-3.07 1.293-.916.09-2.46.197-4.022 0-2.514-.305-3.411-1.616-4.309-3.825-.485-1.203-.7-3.088-.808-4.56-6.213 0-12.407.036-18.62.09-.071 1.382-.305 3.285-.915 5.135-.952 2.873-3.412 3.052-4.794 3.411-1.383.359-3.178.054-5.333-.592-2.154-.647-2.819-3.107-3.178-4.794-.198-.898-.287-2.155-.323-3.142-.952 0-1.634-.018-1.634-.018-1.077.018-2.155.053-3.232.071l-2.478.054c-.556.018-1.885-.179-2.28.234-.126.125-.18.305-.197.467-.072.359-.09.7-.054 1.059a24.57 24.57 0 0 0 1.616 7.146c1.167 2.945 3.555 5.297 6.374 6.769 5.063 2.639 12.478 3.052 17.667.449 1.293-.647 2.478-1.58 3.555-2.55 1.491-1.346 2.299-2.801 3.143-4.632a.704.704 0 0 1 .413-.377c.395-.108.592.251.754.538 2.495 4.669 6.966 7.613 12.155 8.385 3.376.503 6.877.431 10.091-.682 7.11-2.442 9.606-9.283 10.252-16.177.072-.485-.323-.898-.808-.898Z" fill="#DEDED9"/><path d="M96.933 224.994c-2.693.018-5.368.054-8.061.072 0 0-3.95-.036-6.267-.054.036.988.126 2.245.323 3.142.36 1.67 1.024 4.13 3.179 4.794 2.154.665 3.95.952 5.332.593 1.383-.359 3.825-.539 4.794-3.412.61-1.849.862-3.752.916-5.135h-.216ZM130.078 224.923h-.126c-3.537 0-7.056 0-10.593-.018h-3.627c.107 1.472.323 3.357.808 4.56.897 2.209 1.795 3.537 4.309 3.825 1.58.179 3.106.089 4.022 0 1.131-.126 2.208-.557 3.07-1.293a4.96 4.96 0 0 0 1.652-2.891c.269-1.454.413-2.945.485-4.183Z" fill="#275243"/><path d="M368.136 347.871c-2.095-12.825-2.838-25.839-2.867-38.824-.022-9.385.271-18.752.565-28.13-10.108-2.722-20.35-4.83-30.726-3.869-8.714.806-17.029 3.339-25.313 6.025l1.162 10.488c.116 1.054.203 2.11.253 3.167 1.079 22.834-.156 44.978-7.2 66.969-2.557 7.983-5.871 15.335-9.753 22.725-.507.966-1.02 1.947-1.248 3.013-.368 1.722.151 3.537 1.925 4.186.887.323 1.854.328 2.799.33 11.371.014 22.74.059 34.111.047a4715.536 4715.536 0 0 0 40.077-.209c2.401-.021 7.347-.012 8.337-2.977.73-2.007.061-3.661-1.764-7.113-5.69-10.766-8.411-23.909-10.358-35.828Z" fill="#CA8461"/><path d="M456.047 146.165c-3.048-11.109-10.608-20.821-20.379-26.922-8.196-5.119-17.867-7.719-27.507-7.782-7.607-.05-15.078 1.051-19.959-6.237-2.964-4.426-4.242-9.745-6.548-14.546-5.313-11.074-16.095-18.985-27.902-22.366-26.694-7.64-61.042 3.89-71.47 31.121-2.007 5.243-3.117 10.809-5.323 15.971-5.394 12.619-15.616 12.249-26.718 17.102-9.074 3.967-17.486 9.8-23.235 17.979-5.344 7.602-8.116 16.964-7.857 26.246.036 1.288.131 2.575.283 3.855 1.024 8.502 4.717 16.434 10.159 22.999 4.735 5.711 12.975 9.324 13.995 17.517.754 6.06-3.103 11.579-5.574 17.161-4.126 9.321-4.481 20.298-.721 29.771 3.759 9.473 11.649 17.278 21.251 20.697 7.744 2.756 16.23 2.683 24.369 1.544 17.851-2.497 34.175-11.557 52.197-13.225 17.457-1.616 34.536 5.453 51.233 9.519 21.576 5.258 44.532 1.018 55.2-20.506 6.367-12.845 6.109-28.604-.018-41.564-1.944-4.114-4.442-7.972-6.056-12.226-5.988-15.77 9.186-20.942 15.844-32.513 5.778-10.037 7.821-22.355 4.736-33.595Z" fill="#008009"/><path d="M363.91 187.616c-.422-4.491-3.552-8.642-7.786-10.197-4.233-1.557-9.358-.388-12.433 2.912-1.302 1.397-2.16 3.105-2.593 4.92-.839 3.524-.081 7.571 2.257 10.392 2.19 2.645 5.622 3.451 8.787 3.808 3.131.354 5.861-.351 8.042-2.224 2.711-2.324 4.06-6.056 3.726-9.611ZM335.015 182.942c-2.541-5.101-9.276-7.633-14.546-5.467-6.812 2.799-8.318 10.748-5.386 16.849 0 0 2.242 4.575 7.446 5.027 6.871.596 13.473-1.618 13.811-9.554.099-2.35-.277-4.751-1.325-6.855Z" fill="#DEDED9"/><path d="M321.292 188.422c.065 1.49.753 2.937 2.106 3.813 3.566 2.308 8.825-.224 8.296-4.7-.281-2.368-2.412-4.367-4.791-4.537-3.058-.218-5.742 2.384-5.611 5.424ZM345.504 186.61c-.772 2.726.471 6.049 4.087 6.344 2.786.226 5.519-1.024 5.819-3.974.307-3.016-1.483-5.607-4.609-5.941-2.875-.309-4.695 1.451-5.297 3.571Z" fill="#333"/></svg>