<svg width="460" height="460" fill="none" xmlns="http://www.w3.org/2000/svg"><path d="M414.625 257.544a939.621 939.621 0 0 0-33.176-33.866c-1.741-1.691-4.548-4.355-6.712-6.008 4.302-.016 7.083.167 10.375-.93 9.464-3.155 15.343-10.688 18.593-19.034 2.858-7.334 3.171-17.113 3.162-24.983-.018-19.358-.042-42.892-.066-62.252-.012-9.299-.157-19.11-4.925-27.093-4.672-7.818-13.225-12.69-22.066-14.871-12.138-2.997-25.202-1.89-37.602-1.894-13.524-.006-27.047-.008-40.571-.008h-40.572c-6.956 0-13.91 0-20.866.002l-21.39-.008c-24.506 0-49.012.002-73.518 0-22.523-.002-45.876-1.649-68.296.527-11.162 1.083-22.853 5.241-29.117 14.544-4.256 6.318-6.302 15.112-6.4 22.687-.24 19.021.018 42.094-.43 61.116-.285 12.003.591 24.424 6.017 35.136 2.025 3.997 4.731 7.758 8.435 10.281 3.449 2.351 7.566 3.505 11.65 4.36 22.345 4.669 45.533 1.776 68.161 2.271 11.137.244 22.291.099 33.431.101h24.043l6.608.002c.946 0 2.357.004 2.754.004h6.535a497.212 497.212 0 0 0-2.537 20.188c-.66 6.324-2.027 13.117-1.773 19.481.112 2.794 1.097 5.953 3.577 7.242 1.194.62 2.704.795 3.395 1.95.457.763.475 1.816.41 2.704-.243 3.348-.471 6.84-.724 10.188-1.734 22.98-3.022 45.718-5.314 68.648-.4 5.289-.09 11.828 4.339 14.748 2.859 1.886 6.819 1.512 9.906.032 3.088-1.48 5.734-3.981 8.144-6.415 17.707-17.884 35.374-35.702 53.081-53.586.715-.723 1.274-1.53 2.359-.818.367.24.59.413.755.818l30.69 75.284c.306.751.783 1.627 1.542 1.917.767.294 1.969-.075 2.704-.441l47.216-23.751a2.318 2.318 0 0 0 1.109-2.964l-32.328-77.97a1.084 1.084 0 0 1 .999-1.5c24.367-.038 48.733-.078 73.098-.115 3.356-.006 7.242-.269 9.195-2.996 2.816-3.926-.61-9.196-3.9-12.728Z" fill="#DEDED9"/><path d="M208.689 217.583c.004-.022.008-.058.014-.106-.006.034-.01.07-.014.106Z" fill="#DEDED9"/><path d="M142.232 127.616c.405 6.103-.698 12.364-3.539 18.332-.618 1.298-1.349 2.539-2.029 3.807-.419.783-.842 1.564-1.319 2.311-.53.83-1.146 1.559-1.796 2.297-.187.21-1.196 1.217.02 2.326.586.535 2.944 2.617 3.483 3.177a266.49 266.49 0 0 0 4.331 4.306c6.183 5.966 18.478 18.388 21.297 21.241a.825.825 0 0 1-.012 1.174l-5.189 5.045a.668.668 0 0 1-.904.024c-1.24-1.089-4.604-4.051-5.468-4.926-.856-.862-6.887-6.914-9.046-9.064-4.039-4.021-7.973-8.185-12.08-12.131a49.65 49.65 0 0 1-3.406-3.583c-.524-.614-1.023-.409-1.51.08-4.204 4.208-9.503 7.057-15.346 8.064-1.737.3-3.489.515-5.245.648-2.353.177-4.73.201-7.054-.199-2.253-.385-5.215-1.164-7.32-2.06-7.526-3.207-13.64-8.045-18.735-14.444-11.798-14.812-11.782-36.694 1.126-50.717 5.94-6.453 12.37-11.406 21.2-12.745 10.298-1.562 21.43.214 30.103 6.107.878.598 1.74 1.222 2.577 1.878 9.364 7.319 15.12 17.921 15.861 29.052Zm-9.092 1.728c-.117-5.211-1.83-10.226-5.22-15.086-4.816-6.904-12.1-13.316-20.54-14.891-9.006-1.681-18.046.86-24.837 6.892a39.06 39.06 0 0 0-7.27 8.655c-2.283 3.689-3.273 6.814-3.54 11.128-.73 11.748 5.272 22.594 14.328 29.801 2.806 2.233 5.897 4.158 9.287 5.328 5.517 1.904 11.74 1.681 17.107-.611 12.038-5.144 20.981-17.966 20.685-31.216Z" fill="#6C6C6C"/><path d="M358.001 364.422c-.099-.266-1.043-3.2-1.357-3.667l-37.639 18.682c-.735.366-1.579.739-2.346.445-.757-.29-1.138-1.116-1.446-1.867l-30.701-75.151a2.183 2.183 0 0 0-.803-1.008c-1.085-.709-2.001.086-2.716.809l-53.119 53.649c-2.41 2.434-4.885 4.916-7.973 6.396-3.087 1.48-6.964 1.79-9.823-.096-4.428-2.918-4.516-9.266-4.117-14.555 2.293-22.931 3.474-46.03 5.208-69.01.252-3.347.503-6.695.747-10.043.064-.888.115-1.84-.342-2.605-.691-1.154-2.213-1.413-3.407-2.032-2.48-1.29-3.592-4.298-3.704-7.092-.256-6.361 1.109-13.113 1.771-19.439.705-6.765 1.728-13.465 2.449-20.226v-.002l.004-.032.014-.105c.177-1.25 1.516-10.773 1.636-11.566.86-5.789 1.49-11.613 1.986-17.446.509-5.987.7-11.991 1.262-17.973.026-.284.052-.58-.048-.849-.133-.355-.465-.596-.788-.796-1.069-.66-2.257-1.115-3.283-1.842-4.023-2.857-2.926-7.431-2.567-11.613.479-5.558.839-11.127 1.49-16.666.314-2.662.745-5.219.898-7.89.165-2.843.44-5.678.716-8.512a6103.89 6103.89 0 0 0 3.264-34.964c.06-.644.117-1.288.177-1.93-2.148-.494-4.645 1.073-5.937 2.631-1.655 1.997-1.708 4.687-2.044 7.193-.274 2.04-.477 4.087-.672 6.137-.3 3.169-.574 6.338-.822 9.511-.451 5.766-.992 11.524-1.536 17.28-.928 9.825-1.713 19.672-2.696 29.499-.374 3.975-.745 7.951-1.119 11.927-.314 3.353-1.198 6.856.616 9.932.922 1.562 2.43 2.746 4.125 3.389.59.225 1.249.42 1.607.94.332.483.31 1.117.276 1.701-.181 3.111-.103 6.163-.475 9.265l-1.233 10.319c-.322 2.687-1.352 12.416-1.389 12.416-.014.592-1.542 13.024-2.245 18.585a910.535 910.535 0 0 0-1.965 16.624c-.594 5.498-1.041 11.029-1.173 16.557-.093 3.936-.425 8.738 4.276 10.166.62.189 1.357.346 1.633.932.139.292.123.632.106.956-1.451 26.709-3.861 53.387-5.196 80.102-.231 3.294-.455 6.664.423 9.845.88 3.183 3.092 6.197 6.265 7.115 6.96 2.01 13.441-5.689 17.913-9.857a1195.052 1195.052 0 0 0 17.969-17.121c11.339-11.015 22.499-22.215 33.62-33.452a1.869 1.869 0 0 1 3.06.608l13.52 33.069c4.584 11.212 10.034 22.376 13.922 33.818.268.791 1.359 3.801 2.434 6.227.864 1.947 3.171 2.811 5.092 1.891.922-.443 1.83-.965 2.762-1.416 2.319-1.123 4.633-2.255 6.946-3.394 6.894-3.395 13.731-6.966 20.568-10.504 3.773-1.946 7.502-3.98 11.331-5.816.971-.465 2.847-1.383 4.323-2.223a2.73 2.73 0 0 0 1.208-3.322l-.936-2.534ZM407.82 273.27l-71.584.113a1.084 1.084 0 0 0-.999 1.5l5.398 13.018c.515-.018 1.029-.046 1.544-.046 19.376-.002 38.749.008 58.125-.018 1.844-.002 3.676.02 5.541-.256 2.524-.376 4.244-1.46 5.079-3.849 1.061-3.043-.084-5.72-1.586-8.265-.417-.703-1.061-1.484-1.518-2.197Z" fill="#BEBEB9"/><path d="M212.325 188.467c-.497 5.833-1.125 11.655-1.987 17.446-.116.769-1.381 9.762-1.618 11.433l-.035.268 166.059.063s-8.188-8.482-10.223-10.349c-1.965-1.802-4.073-3.439-6.044-5.236-1.921-1.75-3.707-3.645-5.491-5.537-1.119-1.188-2.243-2.37-3.358-3.562-1.103-1.181-.856-1.973-.477-3.463 1.329-5.22-4.035-8.725-7.331-11.775-1.542-1.426-3.046-2.89-4.63-4.277-2.992-2.623-5.954-5.279-9.137-7.658-4.226-3.159-8.242-6.687-12.352-10.001-4.348-3.503-8.679-7.024-12.947-10.622-3.121-2.631-6.354-5.162-9.1-8.22-.504-.564-.47-.999-.367-1.762.459-3.37.487-5.527-2.217-7.854-9.462-8.138-18.991-16.175-28.12-24.677-5.24-4.877-10.743-9.348-16.15-14.017-5.265-4.548-10.301-9.455-16.113-13.348-2.364-1.583-4.983-3.353-7.705-4.206-2.444-.765-4.727-.534-6.644 1.264-1.83 1.718-2.116 4.562-2.335 6.95-.184 2.032-.373 4.067-.558 6.097-.059.646-.115 1.29-.175 1.936a6112.396 6112.396 0 0 1-3.264 34.964c-.274 2.834-.55 5.669-.715 8.512-.155 2.67-.586 5.227-.898 7.89-.652 5.541-1.012 11.108-1.491 16.665-.359 4.183-1.456 8.757 2.567 11.614 1.024.727 2.214 1.182 3.283 1.841.324.201.653.442.789.797.101.268.075.564.047.849-.562 5.984-.753 11.988-1.263 17.975Z" fill="#fff"/><path d="M224.422 217.032c.361-3.205.727-6.412 1.093-9.617l2.545-22.346c.745-6.549 1.661-13.109 2.221-19.624.159-1.854-.445-1.856-.908-1.941-1.828-.332-4.603-.934-5.378-2.357-.501-.918-.465-3.149-.495-4.194-.258-8.688 1.144-16.147 1.697-24.806a579.245 579.245 0 0 1 2.716-30.114c.135-1.153.341-2.43 1.261-3.136 1.508-1.154 3.636.026 5.136 1.19 7.999 6.213 15.804 12.671 23.566 19.176 7.304 6.119 16.199 12.958 22.708 19.946 2.45 2.63-1.478 4.855.904 6.993 13.153 11.798 26.425 23.697 40.375 34.548 1.125.918 2.283 1.806 3.366 2.791 1.772 1.612 3.872 2.867 5.615 4.506 2.044 1.922 5.32 3.96 6.04 6.944.552 2.289-2.416 3.934-1.856 5.883.147.513.542.912.922 1.286 7.204 7.121 14.379 14.27 21.559 21.414a5374.858 5374.858 0 0 0 21.581 21.395c2.79 2.767 5.611 5.505 8.421 8.253.522.511 1.09.98 1.567 1.534 2.301 2.67-.012 2.823-.445 2.831-2.09.036-3.592-.051-5.374-.085-1.659-.03-3.32-.04-4.981-.042-1.192-.002-2.384 0-3.577 0a6480.37 6480.37 0 0 1-15.273-.022c-3.512-.008-7.025-.034-10.538-.034-6.586-.025-13.171-.059-19.757-.097-5.599-.034-11.192-.04-16.791-.012-.491.002-.991.008-1.452.177-1.812.67-1.175 3.469-.519 4.735 3.499 6.747 5.331 11.231 7.924 17.089a1863.57 1863.57 0 0 1 18.827 44.034c3.024 7.332 7.01 14.782 9.328 22.32.118.382.145.708-.361 1.044-2.48 1.645-5.184 2.847-7.872 4.092-1.84.853-3.702 1.658-5.555 2.48-2.506 1.113-4.975 2.303-7.576 3.185-.175.06-.362.119-.543.081-.282-.059-.465-.337-.556-.611-2.005-6.005-4.492-11.89-6.853-17.765a1551.261 1551.261 0 0 0-7.381-17.999c-2.491-5.986-5.001-11.965-7.488-17.953-2.428-5.843-9.478-23.214-10.469-26.097-.63-1.832-1.836-4.612-4.266-3.614-.989.405-1.76 1.198-2.501 1.967-8.031 8.348-16.064 16.695-24.095 25.044-10.53 10.945-21.066 21.887-31.593 32.837-.842.876-1.685 1.752-2.527 2.63-.314.328-.642.664-1.065.831-.421.167-.966.113-1.244-.245a1.217 1.217 0 0 1-.242-.753c.131-10.327.435-11.788.759-17.49.942-16.632 1.79-33.268 2.692-49.904.153-2.829.32-5.652.318-8.49 0-.298-.004-.608-.133-.876-.157-.33-.477-.546-.795-.725-1.411-.791-3.089-1.129-4.299-2.199-1.457-1.292-1.916-3.394-1.864-5.339.139-5.333 1.065-10.642 1.629-15.941.596-5.601 1.22-11.206 1.852-16.808Z" fill="#008009"/></svg>