<svg width="460" height="460" fill="none" xmlns="http://www.w3.org/2000/svg"><path d="M302.426 243.35c-5.861-13.771-13.772-26.916-14.775-41.739-.928-13.702 5.44-26.208 4.141-39.83-1.486-15.561-12.515-26.294-26.355-32.174-17.548-7.453-38.344-8.869-57.101-6.506-13.498 1.7-27.255 4.566-37.139 14.714-9.062 9.308-12.81 22.44-12.028 35.221.967 15.871 11.996 29.078 8.549 45.562-2.211 10.576-9.211 19.68-14.026 29.354-8.36 16.795-9.926 35.829-4.403 53.734 5.271 17.089 17.92 24.213 35.088 23.629 3.748-.127 7.495-.084 11.241.073 2.526.105 5.354-.174 7.854.188.625.089 1.251.375 1.614.892.22.313.331.686.426 1.056.77 3.025.439 6.133.49 9.217l.189 11.437c.159 9.556.304 19.101.25 28.654-.007 1.428-.086 3.634-.093 5.009-.019 3.438.015 6.12-.041 9.562-.007.441-.007.902.179 1.303.495 1.064 2.762 1.085 3.729 1.067 3.192-.059 5.65-.021 8.843-.021 6.662 0 13.323.023 19.983.055 3.331.016 6.662.032 9.992.05 2.201.011 6.256.778 6.256-2.546-.372-5.733-1.275-19.603-1.806-26.867-.661-9.049-.894-18.262-2.229-27.23-.304-2.039-.737-4.058-1.007-6.103-.191-1.456-.788-4.282.002-4.373.079.012.156.025.236.035.129.018.27.034.42.052.973.133 2.133.181 3.344.195 5.871.184 15.366-.018 18.257-.012 2.58.005 5.507-.052 8.392-.086h.007c12.859-.106 20.598-14.961 23.734-25.016 4.686-15.02 6.243-32.272 1.858-47.39-1.098-3.796-2.512-7.502-4.071-11.166Z" fill="#008009"/><path d="M229.544 133.362ZM229.288 130.853ZM231.374 142.086ZM232.153 144.475ZM231.714 143.172ZM230.999 140.763ZM229.915 135.854ZM230.164 137.206ZM230.4 138.323ZM230.713 139.664ZM229.111 126.039ZM271.057 327.017c.038 0 .076 0 .114-.002-.034 0-.07 0-.106.002h-.008ZM270.101 327.026c.042 0 .081 0 .123-.002h-.072c-.016.002-.034.002-.051.002ZM279.541 326.94l-.111.002.433-.006h-.007l-.315.004Z" fill="#FD4256"/><path d="M395.298 273.678c-1.017-5.72-2.841-11.298-5.445-16.49-2.679-5.338-6.431-9.438-9.946-14.161-.689-.924-1.835-2.258-1.978-3.284-.075-.542.463-1.073.798-1.429.466-.497.924-.973 1.35-1.509 1.946-2.458 3.564-5.201 4.921-8.024 1.944-4.042 3.321-8.349 4.17-12.751.861-4.466 1.187-9.034 1.024-13.579a64.233 64.233 0 0 0-1.954-13.568 61.674 61.674 0 0 0-4.765-12.72c-2.013-3.958-4.483-7.691-7.408-11.035a49.059 49.059 0 0 0-1.511-1.648c-.715-.744-1.477-1.513-1.77-2.503-.556-1.885 1.437-3.828 2.44-5.333 14.968-22.452 17.137-55.99-6.164-74.717-24.621-19.786-66.868-16.548-95.341-9.348-19.089 4.825-35.693 18.486-41.879 37.454a55.918 55.918 0 0 0-2.573 13.097c0 .002 24.902 2.805 36.094 7.559 13.841 5.881 24.856 16.529 26.34 32.091 1.3 13.621-5.072 26.115-4.146 39.817 1.003 14.823 8.946 28.01 14.809 41.782 1.559 3.663 2.943 7.364 4.044 11.16 1.527 5.265 2.331 10.77 2.519 16.368.35 10.475-1.341 21.207-4.394 30.994-1.048 3.359-2.57 7.203-4.665 10.9-3.915 6.903-9.624 13.184-17.383 13.996-.517.053-1.044.121-1.579.127a213.84 213.84 0 0 1 6.511.001c.426.009 1.382.083 1.365 1.266-.192 12.601-1.366 18.685-1.758 28.286-.236 5.821-.853 11.592-1.185 17.34-.167 2.889-.519 5.78-.685 8.67l-.493 8.551a2.208 2.208 0 0 0 2.149 2.335c1.353.034 2.957.07 3.758.07 13.33-.006 26.664-.067 39.994.032.493.003 1.021-.002 1.432-.277.694-.463.746-1.447.712-2.28-.145-3.568-.261-7.112-.424-10.681-.683-16.743-.054-33.558-1.1-50.274-.202-3.476-.03-3.492 3.433-3.485 24.297.049 50.748-2.933 59.455-30.094 2.362-7.37 2.571-15.16 1.228-22.706Z" fill="#FD4256"/><path d="m273.45 327.008-.938.001 1.049-.001h-.111ZM229.182 123.512ZM275.824 326.99l-.422.005-.601.005c.544-.005 1.094-.01 1.652-.017h-.041c-.198.001-.393.003-.588.007ZM276.903 326.975l.686-.009-.145.002c-.18.004-.361.006-.541.007ZM278.014 326.961l.74-.011c-.026 0-.052 0-.078.002l-.662.009ZM273.793 327.006l.987-.007-.363.003c-.211.002-.419.004-.624.004Z" fill="#FD4256"/><path d="M302.426 243.35c-5.861-13.771-13.772-26.916-14.775-41.739-.928-13.702 5.441-26.208 4.141-39.83-1.486-15.561-12.515-26.294-26.355-32.174-11.192-4.754-23.705-7.051-36.168-7.478-1.01 13.435 2.757 27.288 11.617 37.527.562.649.996 1.466.692 2.329-.272.773-.853 1.35-1.332 1.988-1.253 1.672-2.896 3.706-4.149 5.637-.419.644-.837 1.286-1.268 1.922-2.419 3.58-4.382 7.504-5.934 11.53-3.697 9.592-5.152 20.571-3.583 30.778.487 3.165 1.572 6.202 2.659 9.215 2.337 6.475 5.228 11.78 9.799 16.945 1.464 1.654 3.408 2.886 5.206 4.192.454.331.574.959.277 1.434-1.053 1.681-2.422 3.156-3.693 4.688-5.931 7.148-11.013 17.088-11.537 26.487-.186 3.336-.336 6.676-.256 10.017.402 17.051 3.529 37.138 22.488 39.921a39.604 39.604 0 0 0 .808.113c.933.111 1.707.14 3.189.168 4.463.141 11.021.057 15.179.013.039 0 .077 0 .116-.002l.333-.004c.091-.001.182-.001.27-.003l.177-.002.359-.004h.084l.293-.001c.036 0 .072 0 .106-.002.113-.002.223-.002.329-.002h.079l.273-.002h.057c.099 0 .19 0 .279-.002h.322l.939-.001.313-.002.654-.004c.127-.002.256-.002.384-.003l.603-.006.422-.005.586-.007.452-.006c.194-.001.387-.005.582-.007a184.356 184.356 0 0 0 1.231-.018l.866-.012c.105-.002.209-.004.314-.004l1.014-.012h.043c12.855-.109 20.592-14.963 23.728-25.016 4.686-15.02 6.244-32.272 1.858-47.39-1.098-3.796-2.512-7.502-4.071-11.166Z" fill="#632F3C"/><path d="M161.076 327.097c6.071.633 12.585.093 18.602-1.752.049-.014.095-.029.144-.045l-.194-.009-.064-.003c-14.816-.692-26.112-7.3-30.88-22.752-5.522-17.906-4.033-37.941 4.327-54.736 4.815-9.672 11.837-18.49 14.049-29.067 3.447-16.482-6.894-29.789-7.861-45.661-.022-.353-.086-1.1-.086-1.102-3.874-.777-8.097-1.219-11.961-1.548-12.881-1.101-26.154-.894-38.712 2.473-11.523 3.089-22.511 9.152-29.93 18.495-15.984 20.131-16.851 54.269-14.584 78.667 1.476 15.896 6.983 32.058 18.624 42.986 12.129 11.387 26.238 11.789 41.646 14.278.005.001.014.001.023.005.395.091.699.409.792.804.011.043.018.079.022.099.828 5.834.159 11.399.021 17.256-.186 7.897-.751 15.782-1.596 23.636-.419 3.877-.549 7.746-1.093 11.608-.502 3.579-.631 5.719-.965 9.531-.195 2.215-.465 3.501 1.806 3.501 11.453 0 35.998.261 36.552.238 1.466-.061 1.838-1.062 1.792-2.832-.269-10.366-.46-19.903-.867-30.281-.122-3.108-.27-6.215-.413-9.322a565.45 565.45 0 0 1-.356-8.734 255.119 255.119 0 0 1-.129-8.964c.013-1.876-.036-3.451.079-5.644.034-.667.549-1.195 1.212-1.125Z" fill="#0094C7"/><path d="M211.863 214.991c-8.48-22.702-26.948-36.263-49.835-42.347a49.11 49.11 0 0 0-2.916-.674c.015.356.027.712.048 1.066.968 15.871 11.348 29.215 7.901 45.699-2.212 10.577-9.234 19.393-14.049 29.067-8.36 16.795-9.849 36.83-4.327 54.735 4.795 15.544 16.191 22.136 31.134 22.763 3.277-1.017 6.41-2.421 9.238-4.237 17.228-11.074 23.862-31.624 26.687-50.891 1.386-9.446 2.044-19.111 1.481-28.64-.537-9.075-2.182-18.025-5.362-26.541Z" fill="#275243"/></svg>