<svg width="70" height="120" fill="none" xmlns="http://www.w3.org/2000/svg"><path d="m33.06 77.173-5.379-.605-1.34-.15-.077-.01 1.417.16 5.379.605Z" fill="#94AA48"/><path d="m35.58 77.515-.165-.025-.204-.031c1.001.15 1.943.328 3 .472l17.884 2.762 4.492.561a.83.83 0 0 0 .92-.68c.038-.22.078-.467.111-.715 1.33-9.962 2.252-19.99 3.485-29.969.577-4.667 1.173-9.333 1.758-13.999a1166.117 1166.117 0 0 0 3.074-27.252c.02-.188.038-.382-.022-.56-.13-.395-.59-.58-1.005-.612a49.295 49.295 0 0 1-2.54-.276c-2.44-.324-4.883-.508-7.325-.821A3539.12 3539.12 0 0 0 44.38 4.532C34.6 3.322 24.82 2.12 15.056.806 13.97.659 12.883.446 11.796.3 11.396.247 9.9-.194 9.544.1c-.088.071-.116.192-.137.304-.42 2.223-.769 4.686-.85 6.949-.006.188-.03.494-.052.68-1.012 8.782-2.495 17.522-3.5 26.316-1.096 9.13-2.78 18.158-3.73 27.315-.028.26-.13 1.108-.263 2.246a508.561 508.561 0 0 0-.455 3.983c-.048.447-.111.892-.165 1.339-.112.942-.216 1.492-.282 2.44l-.108 1.569a.771.771 0 0 0 .645.814c.222.036 3.79.338 4.622.389l19.33 1.775 1.525.172" fill="#94AA48"/><path d="M34.297 77.327c-.13-.018-.259-.034-.388-.05.13.016.259.032.388.05ZM34.908 77.414c-.11-.017-.22-.032-.332-.048.11.015.222.031.332.048Z" fill="#94AA48"/><path d="M30.538 98.852c-.79.174-1.576.42-2.35.653-.882.266-1.94.429-2.643 1.068-.266.24-.467.544-.649.852-.542.92-1.02 1.955-1.09 3.033-.06.909-.37 3.359-.37 3.359l-.461 3.36-.37 3.353c-.09 1.178-.199 2.357-.266 3.537-.01.187-.13 1.824-.134 1.833l2.856.008 3.053-.022 1.432.029.745-.014s.804.044.833-1.008c.03-1.052.366-3.828.366-3.828l.343-3.354.38-4.208.292-4.478.343-4.436.001-.013.065-.468.003-.02c-.784.283-1.564.584-2.38.764ZM35.58 77.515l-.165-.025a55.215 55.215 0 0 0-2.356-.316l-5.378-.605c-.447-.05-.881-.104-1.328-.154-.114-.013-.23-.023-.23-.023v.002s-.057.328-.083.453c-.103.487-.131.98-.203 1.471-.084.58-.159 1.163-.198 1.749-.008.113-.013.234.038.336.19.373 1.317.067 1.625.014.714-.124 1.424-.277 2.141-.381 2.046-.296 4.06-.725 6.135-.785h.044l-.042-1.736Z" fill="#632F3C"/><path d="M55.902 62.728c-1.916-4.796-7.858-6.593-11.115-10.266-.599-.676-1.157-1.582-.852-2.432.264-.737 1.068-1.113 1.812-1.36 2.681-.884 6.918-.18 8.755-2.773.5-.706.716-1.582.744-2.446.088-2.752-1.627-5.267-3.685-7.096-2.058-1.83-4.5-3.184-6.58-4.99-1.06-.92-2.099-2.338-1.51-3.613.778-1.684 3.815-1.866 5.327-2.598 1.855-.898 2.853-2.985 2.558-4.988-.227-1.532-1.03-2.914-1.892-4.201a40.295 40.295 0 0 0-4.83-5.91c-1.541-1.56-3.327-3.13-5.509-3.497-2.591-.436-5.133.912-7.298 2.4-3.076 2.115-9.03 5.956-9.334 10-.018.248.005.5.059.743.438 1.97 1.49 2.578 3.206 3.454.83.424 1.601.958 2.282 1.596.569.534 1.22 1.252 1.182 2.076-.036.808-.71 1.428-1.367 1.898-1.881 1.344-4.05 2.069-6.17 2.938l-3.111 1.161c-1.956.73-3.857 1.923-4.246 4.136a4.646 4.646 0 0 0 1.294 4.045c.82.807 1.905 1.272 2.928 1.798A22.957 22.957 0 0 1 22 44.987c.8.612 1.619 1.392 1.671 2.398.081 1.528-1.565 2.501-2.978 3.091-3.215 1.343-6.47 2.589-9.668 3.972-1.847.8-3.833 1.804-4.593 3.667-.694 1.703-.119 3.727 1.04 5.155 1.16 1.428 2.816 2.359 4.489 3.125 4.326 1.98 8.865 2.731 13.52 3.448.208.032.702.104 1.066.158a.438.438 0 0 1 .371.493c-.155 1.14-.58 4.259-.794 5.898l.216.025 1.34.15 5.38.605a56.233 56.233 0 0 1 2.52.344l-.065-2.537v-.016c.01-.58-.004-1.16-.016-1.74-.01-.552-.025-1.105-.007-1.656.005-.167-.006-.337.035-.502.053-.215.187-.302.406-.3.386.002.768.054 1.151.099.436.055.875.097 1.311.15.662.08 1.326.151 1.99.21.142.013.284.025.425.034l4.14.27c3.236.211 6.846.302 9.284-1.834 1.845-1.617 2.575-4.389 1.766-6.705a6.753 6.753 0 0 0-.098-.261Z" fill="#008009"/><path d="m7.877 119.753.005-.025c.957-5.239 2.748-10.271 4.337-15.339l.047-.151c.447-1.43.764-2.923 1.156-4.379l1.973-6.147 1.183-3.847.888-2.531s.263-.69 1.052-2.039c1.233-2.106 2.71-3.949 4.27-5.813l.01-.011 2.027-2.094.011-.01c.36-.32.52-.613.912-.89a.541.541 0 0 1 .376-.085s-.057.33-.084.454c-.102.487-.13.98-.202 1.472-.085.58-.16 1.163-.199 1.748-.008.114-.012.234.039.336.189.373 1.317.068 1.625.014.714-.123 1.423-.278 2.14-.38 2.046-.296 4.061-.726 6.136-.785.465-.014.943-.009 1.38.151.807.297 1.362 1.119 1.45 1.976.087.86-.259 1.921-.936 2.485-.12.1-.254.18-.398.234a.204.204 0 0 0-.068.34c.108.101.237.236.378.41.406.503.646 1.214.562 1.823-.123.902-.813 1.725-1.609 2.125-.137.07-.302.161-.3.314.002.102.081.184.151.258.505.534.784 1.29.696 2.02a2.234 2.234 0 0 1-.54 1.203c-.216.244-.919.507-.978.838-.016.087.038.17.086.243.5.776.57 1.811.176 2.646-.445.942-1.248 1.276-2.167 1.584-.97.324-1.92.73-2.925.952-.79.174-1.576.42-2.35.653-.882.265-1.94.428-2.643 1.067-.266.241-.467.544-.649.853-.542.92-1.02 1.954-1.09 3.033-.06.908-.37 3.359-.37 3.359l-.46 3.359-.372 3.354c-.088 1.178-.198 2.357-.265 3.536-.01.187 0 1.832-.13 1.833l-5.063.039-6.958.059c-.68.006-1.36-.002-2.04-.009-.098-.002-.216-.014-.26-.103a.222.222 0 0 1-.01-.133Z" fill="#CA8461"/></svg>