<svg fill="none" height="90" viewBox="0 0 90 90" width="90" xmlns="http://www.w3.org/2000/svg"><path d="m0 6c0-3.31371 2.68629-6 6-6h78c3.3137 0 6 2.68629 6 6v78c0 3.3137-2.6863 6-6 6h-78c-3.31371 0-6-2.6863-6-6z" fill="#f0f0eb"/><path d="m46.1355 77.2231c-1.9197.0585-3.949-.6734-5.1037-2.2498-1.0612-1.449-1.3408-3.3631-1.0598-5.1075.0861-.5341.2258-1.0598.4193-1.5645.1778-.4631.4057-.9107.7133-1.2999.7025-.8894 1.7864-1.4221 2.9005-1.6314 4.2903-.8053 8.0094 1.6783 7.8855 6.202-.0287 1.0441-.2359 2.1021-.7564 3.0076-.9117 1.5862-2.772 2.4433-4.5454 2.6152-.1495.014-.301.0238-.4533.0283z" fill="#d6a300"/><path d="m61.7163 36.446v.0007c-.0441 1.0962-.0662 1.3846-.1194 1.9341-.0868.896-.1176 1.0206-.2369 1.6531-.0763.4042-.1835.8204-.271 1.2232-.1491.6857-.3902 1.3433-.6355 1.9905-.3322.876-.7669 1.7139-1.3486 2.4654-.2299.2971-.4781.5768-.7126.868-.9786 1.2141-2.2074 1.8718-3.5343 2.647-.8589.5019-1.7927.8449-2.6705 1.3146 1.2149-.519 2.8795.2832 4.0842.5033 1.526.2786 3.1402.0861 4.5521-.5589.1029-.0469.2047-.0963.3052-.1477 2.3999-1.2285 3.8909-3.7034 4.0449-6.3728.181-3.1346-2.2078-6.4106-3.4562-7.5194-.0007 0-.0011-.0007-.0014-.0011z" fill="#94aa48"/><path d="m63.139 24.8406c-1.8382-1.75-4.3586-2.3285-6.8044-2.3313-.001 0-.0031 0-.0045 0 .0003.0003.0017.0014.0021.0017.001.0007.0017.0014.0028.0021.5516.4295 1.0759.9013 1.6107 1.4077 1.2848 1.2173 2.2186 2.8102 2.8381 4.4576.5859 1.5582.8148 3.2239.8946 4.879.0406.8442.0427 1.6898.0326 2.5351-.0025.2131.0014.4322.0052.6534 2.1571-.7889 3.576-3.6298 3.7261-5.7921.1495-2.148-.7441-4.3285-2.3033-5.8132z" fill="#275243"/><path d="m48.0163 19.3113c1.4864.2075 2.9519.5726 4.3603 1.0923.7098.2622 1.4056.5635 2.0811.9051.6804.3441 1.8665 1.1963 1.8672 1.1967.0018.0014.0039.0028.0056.0042-.0311-.2373-.0878-.524-.1144-.6825-.4956-2.9663-1.9254-5.9805-4.7331-7.426-1.9141-.9852-4.1342-1.3114-6.2646-1.0923-1.6506.1697-3.2963.6678-4.6361 1.6467-1.9688 1.4389-2.778 3.5333-3.5606 5.7397-.0157.0448-.0703.2061-.134.3738.0084-.0046.0164-.0091.0248-.0137 3.3121-1.8175 7.4585-2.2529 11.1038-1.744z" fill="#d6a300"/><path d="m30.0329 34.8148c.0032-.0445.006-.0886.0091-.1327.0203-.2835.0441-.5638.0707-.8396.3399-3.5357 1.0784-7.2597 3.4255-10.0538.9401-1.1189 2.0748-2.0135 3.3306-2.709.0066-.0035.0129-.0073.0196-.0108-.0004 0 .0003 0 0-.0004-.44-.1578-1.2611-.2415-1.7147-.2852-1.3457-.1306-2.7324.1144-3.9525.6968-3.1871 1.5218-4.5588 5.1359-3.9113 8.491.3087 1.5999 1.091 3.1021 2.2211 4.2753.1271.1319.3251.3773.5019.5684z" fill="#94aa48"/><path d="m42.0701 47.6543c.0287-.0424.0595-.0833.0921-.1236.1571-.3804.3339-.7518.5344-1.1112.5086-.9104 1.2838-1.5334 2.1504-2.0486 1.3139-.7812 2.7234-1.6443 3.4678-3.0345.7487-1.3979.9548-3.0628.9975-4.627.0424-1.5575.0907-3.0523-.8988-4.3729-.8515-1.1368-2.3527-1.8168-3.7383-1.5057-1.1732.2636-2.1315 1.1921-2.6093 2.2957-1.5095 3.487 1.6282 7.1935-.203 10.6508-.9313 1.7584-2.9795 2.7969-4.9672 2.7062-1.9876-.0906-3.8419-1.2481-5.02-2.8518-1.8102-2.4636-2.0447-5.8012-1.8431-8.8126 0-.0014.0007-.0035.0007-.0049-.1554.1582-.4169.455-.4494.4973-.189.2454-.3682.4981-.5376.7571-.8418 1.2894-1.4035 2.7272-1.6065 4.256-.188 1.4143-.0763 2.8721.3584 4.2329.4361 1.3643 1.2026 2.6169 2.2498 3.5973 2.7076 2.535 6.9615 3.0306 10.1619 1.1879.6888-.3969 1.415-1.0304 1.8602-1.6884z" fill="#275243"/><path d="m30.042 34.682c.0203-.2835.0441-.5638.0707-.8396.3399-3.5357 1.0784-7.2597 3.4255-10.0538 3.4254-4.0778 9.4318-5.1814 14.4777-4.4768 1.4865.2075 2.9519.5726 4.3603 1.0923.7098.2622 1.4056.5635 2.0811.9051 1.3356.6755 2.3905 1.5719 3.4888 2.6121 1.2849 1.2173 2.2187 2.8101 2.8382 4.4576.5859 1.5582.8148 3.2238.8946 4.879.0406.8442.0672 1.7062.057 2.5515-.0091.7637.006 1.5764-.0693 2.339-.1232 1.2485-.2929 2.0885-.5316 3.0979-.1617.6828-.4354 1.3548-.6811 2.002-.3322.876-.7669 1.7139-1.3486 2.4654-.2299.2971-.4781.5768-.7126.868-.9786 1.2141-2.2074 1.8718-3.5343 2.647-1.0013.5852-2.0986.9527-3.0989 1.5593-.9292.5631-1.2236 1.3489-1.3037 2.4076-.1481 1.9569-.0581 3.9225.1018 5.8755.0315.3843.1432 2.9879.1964 4.2472.0157.377-.2741.6962-.651.7161-1.5922.0844-3.1857.1393-4.7796.1782-.8208.0199-1.4217.0665-2.2428.0801-.5124.0084-2.044.1215-2.3433-.1865-.1491-.1533-.1466-.3952-.1407-.6087.0805-2.8402.091-5.6892.2569-8.5256.1677-2.8648.4214-6.0067 1.8431-8.5519.5086-.9104 1.2838-1.5334 2.1504-2.0486 1.3139-.7812 2.7234-1.6443 3.4678-3.0345.7487-1.3979.9548-3.0628.9975-4.627.0424-1.5575.0907-3.0523-.8988-4.3729-.8515-1.1368-2.3527-1.8168-3.7383-1.5057-1.1732.2636-2.1315 1.1921-2.6093 2.2957-1.5095 3.487 1.6282 7.1935-.203 10.6508-.9313 1.7584-2.9795 2.7969-4.9672 2.7062-1.9876-.0906-3.8563-1.2218-5.0344-2.8255-1.8378-2.5018-2.037-5.9304-1.8193-8.9765z" fill="#008009"/></svg>