<svg width="117" height="120" fill="none" xmlns="http://www.w3.org/2000/svg"><path d="M116.432 51.652c-.823-7.718-2.761-15.345-6.43-22.222-5.26-9.858-13.417-17.484-23.36-22.488-.002 0-3.663-1.843-4.64-2.262l-.158-.065C77.004 2.68 71.945 1.27 66.791.485c-7.822-1.19-15.665-.072-23.2 2.05-.129.038-5.007 1.415-8.176 2.803-1.271.557-2.43 1.328-3.644 1.99a60.71 60.71 0 0 0-9.502 6.434C10.736 23.267 2.739 36.906.602 51.853c-.16 1.12-.396 2.264-.466 3.394-.168 2.706-.138 5.447-.126 8.156.012 2.56.133 4.964.27 6.192.348 3.142.767 5.307.907 5.866 4.097 16.388 14.152 31.804 30.028 38.826 1.275.564 2.557 1.32 3.776 1.792a31.173 31.173 0 0 0 4.114 1.28c9.388 2.105 18.47 3.18 28.104 2.374 5.868-.491 11.745-1.465 17.226-3.617 7.69-3.018 14.398-8.314 19.525-14.793 11.117-14.051 14.324-32.284 12.472-49.67Z" fill="#F7BC00"/><path d="M115.545 67.063c-1.353.594-2.386 1.14-3.743 1.712-1.049.441-2.098.882-3.145 1.327-2.873 1.224-5.787 2.326-8.609 3.67-.699.332-1.251.733-.957 1.582.277.8.724 1.524 1.119 2.268 1.238 2.327 2.028 5.008 2.915 7.484 1.108 3.094 2.007 6.26 3.159 9.332.199.479.886 1.585.431 2.08-.478.519-2.637-.463-3.118-.656-1.817-.727-3.554-1.464-5.426-2.026l-7.61-2.289a.67.67 0 0 0-.312-.023c-.284.051-.316.266-.329.46-.092 1.382.045 2.797-.049 4.182l-.066 1.518-.037 3.228v7.368c-.023 1.229.08 2.445-.095 3.674-.122.854-.606 1.28-1.45.907-.977-.433-1.943-1.096-2.742-1.808-.92-.819-1.906-1.627-2.776-2.502-.505-.508-1.016-1.009-1.524-1.514l-3.615-3.593a48.338 48.338 0 0 0-.228-.226l-2.304-2.41s-.873-.907-1.397.07c-.524.978-2.41 4.435-2.41 4.435l-3.351 6.668c-.361.692-.676 1.411-1.018 2.113a359.821 359.821 0 0 1-1.707 3.461c-.214.428-.401.901-.666 1.297a.49.49 0 0 1-.278.208c-.283.072-.462-.171-.579-.393-.244-.466-.464-.973-.682-1.449-.23-.504-.394-1.008-.632-1.509l-1.808-3.834c-.104-.22-.213-.439-.312-.662l-2.409-5.447-.71-1.673c-.18-.424-.351-.853-.543-1.271-.202-.444-.314-1.012-.713-1.33a.596.596 0 0 0-.271-.129c-.436-.069-.687.447-.902.742l-.616.847c-.441.608-.882 1.218-1.322 1.828-.17.236-.335.475-.51.706l-3.631 4.819-1.823 2.473c-1.069 1.451-2.11 2.929-3.007 4.492-.203.352-.54.643-.854.228-.21-.279-.177-.675-.232-1.003l-.311-1.831-.594-3.496-.035-.208a3.656 3.656 0 0 0-.054-.261l-1.784-7.342c-.366-1.505-.698-3.019-1.078-4.519-.038-.149-.112-.304-.251-.371a.425.425 0 0 0-.303-.036c-1.574.486-2.537 1.118-3.702 1.816a92.53 92.53 0 0 1-3.119 1.759c-3.137 1.705-6.253 3.418-9.468 4.95-.377.18-.862.512-1.3.454-.7-.091-.253-.773-.118-1.186.137-.416.281-.828.43-1.238.291-.807.598-1.607.888-2.414a194.381 194.381 0 0 0 2.511-7.465c.41-1.309.802-2.624 1.175-3.944.268-.95 1.063-2.578.831-3.578-.151-.653-1.821-.178-2.307-.178l-2.43.168c-1.396.096-2.802.273-4.198.302-2.15.044-4.3.083-6.45.067a39.494 39.494 0 0 1-3.014-.133c-.442-.037-.882-.085-1.324-.116-.26-.019-1.02-.134-1.006-.502.009-.22.392-.558.532-.706.23-.24.49-.451.72-.692.58-.602 1.154-1.21 1.727-1.816 3.367-3.565 6.83-7.023 10.135-10.648a.758.758 0 0 0 .193-.374c.158-.865-1.36-1.268-1.912-1.506-.622-.27-1.253-.52-1.868-.805a217.61 217.61 0 0 1-2.704-1.296l-3.905-2.144c-1.96-1.076-3.792-2.409-5.672-3.618-.413-.266-.833-.525-1.242-.8a.085.085 0 0 1-.01-.006c-.273-.21-1.675-1.019-.882-1.313 3.554-1.316 7.184-2.409 10.802-3.532 1.81-.562 3.619-1.132 5.414-1.74.708-.241 1.547-.274 1.267-1.154-.22-.695-1.17-1.358-1.642-1.89a485.745 485.745 0 0 0-2.114-2.37c-.564-.628-1.502-1.64-2.085-2.25-1.333-1.395-5.585-6.037-6.356-6.872-.387-.42-.75-.864-1.071-1.337-.194-.284-1.038-1.328-.524-1.614.732-.406 1.957-.185 2.75-.178l3.668.029c4.134.033 8.247-.044 12.38-.107.145-.002.298-.034.403-.134.1-.096.138-.24.134-.38a1.189 1.189 0 0 0-.041-.266c-.066-.25-.195-.492-.274-.733l-.367-1.125-.508-1.554c-.386-1.184-.846-2.348-1.269-3.519-1.192-3.306-2.831-6.445-3.99-9.757-.133-.377-.852-2.108.063-2.04.62.047 1.15.237 1.728.451.873.324 1.742.66 2.61.999 1.948.76 3.89 1.539 5.838 2.299.723.281 1.446.563 2.176.826 1.572.565 2.303.95 4.577 1.852.268.107.718.334.945.049.155-.196.113-.517.128-.75.047-.737.078-1.475.113-2.213l.454-5.272.28-5.307.288-4.043c.053-.73.03-1.497.154-2.214a.881.881 0 0 1 .156-.406c.083-.105.218-.182.354-.159.088.015.167.06.24.112 1.956 1.373 3.75 3.539 5.396 5.252l8.093 8.43a.626.626 0 0 0 .122.102c.382.237.697-.175.868-.518 1.66-3.34 3.347-6.648 4.796-10.077a102.139 102.139 0 0 1 2.344-5.201c.292-.597.56-1.217.883-1.797.196-.35.453-.834.858-.98.523-.187.773.495.917.857.148.376.29.754.439 1.13.97 2.461 1.635 5.031 2.66 7.47.652 1.554 1.063 3.094 1.683 4.663.281.71 1.127 4.11 2.113 4.041.165-.01.311-.104.45-.196 2.347-1.552 4.526-3.332 6.77-5.026l.151-.115s6.31-4.377 7.754-5.574c.236-.195 1.767-1.375 1.942-.498.042.211.002.472.003.687.028 5.845-.227 11.674-.315 17.516-.008.58.002 1.16.022 1.741a.356.356 0 0 0 .474.32l4.401-1.552 8.59-2.619c.927-.26 1.86-.497 2.787-.756.464-.13.927-.264 1.386-.41.409-.129.781-.33 1.213-.384.053-.006.109-.01.155.017.083.047.088.163.072.256-.075.456-1.111 2.21-1.369 2.712-.492.957-1.029 1.925-1.522 2.895-.369.728-.762 1.47-1.079 2.221-.224.531-.426 1.051-.678 1.573-.263.544-.532 1.085-.803 1.624-.413.824-.805 1.672-1.282 2.458l-1.658 2.95c-.545 1.04-1.041 1.446.198 1.61 1.46.195 2.928.352 4.391.527 3.663.439 7.327.836 10.994 1.231.581.063 1.18.119 1.75.25.333.075.717.152.974.397a.412.412 0 0 1 .14.283c.01.444-1.58 1.857-1.966 2.27l-.646.692-4.504 4.609-4.016 3.945s-2.199 2.025-2.479 2.27c-.279.244-.349.419-.209.593.344.43 2.484 1.641 3.057 1.917 1.139.547 2.315 1.012 3.462 1.542 1.681.776 3.291 1.688 4.876 2.642.765.46 1.559.918 2.312 1.415.381.251.755.516 1.115.798.263.206.87.546.849.928-.023.402-.505.623-.822.762Z" fill="#FD6B6B"/><path d="M20.873 51.17c1.86-9.617 6.683-19.346 14.417-24.818 2.175-1.54 4.586-2.72 7.063-3.701 9.161-3.63 19.502-4.54 28.98-1.838 11.503 3.28 21.737 12.423 25.418 23.99.489 1.536 1.676 6.53 1.815 7.786.14 1.257.245 4.05.245 5.866 0 1.769-.118 5.212-.123 5.388 0 .005 0 .01-.002.014-1.418 11.85-6.749 24.126-17.525 30.334-4.918 2.834-10.645 4.048-16.319 4.238-8.735.29-17.827-1.017-25.702-4.92-10.895-5.4-16.785-15.734-18.785-27.338-.188-1.095-.259-2.215-.271-3.322-.013-1.081-.097-2.168-.085-3.261.03-2.72.321-5.564.874-8.418Z" fill="#FD4256"/></svg>